{"asset":{"version":"2.0","generator":"Blockbench 4.9.4 glTF exporter"},"scenes":[{"nodes":[11],"name":"blockbench_export"}],"scene":0,"nodes":[{"name":"shelf1","mesh":0},{"name":"shelf2","mesh":1},{"name":"shelf3","mesh":2},{"name":"shelf4","mesh":3},{"name":"shelves","children":[0,1,2,3]},{"rotation":[0.7071067811865475,0,0,0.7071067811865476],"translation":[0,1.1875,1.1875],"name":"leg1","mesh":4},{"rotation":[0.49999999999999967,0.4999999999999996,-0.5000000000000003,0.5000000000000003],"translation":[1.375,1.1875,0.5],"name":"leg2","mesh":5},{"rotation":[0.5,-0.4999999999999999,0.5,0.5000000000000001],"translation":[-1.5,1.1875,-0.375],"name":"leg4","mesh":6},{"rotation":[4.3297802811774633e-17,0.707106781186547,-0.707106781186548,4.3297802811774695e-17],"translation":[1.5,1.1875,-0.375],"name":"leg3","mesh":7},{"name":"legs","children":[5,6,7,8]},{"name":"root","children":[4,9]},{"children":[10]}],"bufferViews":[{"buffer":0,"byteOffset":0,"byteLength":288,"target":34962,"byteStride":12},{"buffer":0,"byteOffset":288,"byteLength":288,"target":34962,"byteStride":12},{"buffer":0,"byteOffset":576,"byteLength":192,"target":34962,"byteStride":8},{"buffer":0,"byteOffset":768,"byteLength":72,"target":34963},{"buffer":0,"byteOffset":840,"byteLength":288,"target":34962,"byteStride":12},{"buffer":0,"byteOffset":1128,"byteLength":288,"target":34962,"byteStride":12},{"buffer":0,"byteOffset":1416,"byteLength":192,"target":34962,"byteStride":8},{"buffer":0,"byteOffset":1608,"byteLength":72,"target":34963},{"buffer":0,"byteOffset":1680,"byteLength":288,"target":34962,"byteStride":12},{"buffer":0,"byteOffset":1968,"byteLength":288,"target":34962,"byteStride":12},{"buffer":0,"byteOffset":2256,"byteLength":192,"target":34962,"byteStride":8},{"buffer":0,"byteOffset":2448,"byteLength":72,"target":34963},{"buffer":0,"byteOffset":2520,"byteLength":288,"target":34962,"byteStride":12},{"buffer":0,"byteOffset":2808,"byteLength":288,"target":34962,"byteStride":12},{"buffer":0,"byteOffset":3096,"byteLength":192,"target":34962,"byteStride":8},{"buffer":0,"byteOffset":3288,"byteLength":72,"target":34963},{"buffer":0,"byteOffset":3360,"byteLength":96,"target":34962,"byteStride":12},{"buffer":0,"byteOffset":3456,"byteLength":96,"target":34962,"byteStride":12},{"buffer":0,"byteOffset":3552,"byteLength":64,"target":34962,"byteStride":8},{"buffer":0,"byteOffset":3616,"byteLength":24,"target":34963},{"buffer":0,"byteOffset":3640,"byteLength":96,"target":34962,"byteStride":12},{"buffer":0,"byteOffset":3736,"byteLength":96,"target":34962,"byteStride":12},{"buffer":0,"byteOffset":3832,"byteLength":64,"target":34962,"byteStride":8},{"buffer":0,"byteOffset":3896,"byteLength":24,"target":34963},{"buffer":0,"byteOffset":3920,"byteLength":96,"target":34962,"byteStride":12},{"buffer":0,"byteOffset":4016,"byteLength":96,"target":34962,"byteStride":12},{"buffer":0,"byteOffset":4112,"byteLength":64,"target":34962,"byteStride":8},{"buffer":0,"byteOffset":4176,"byteLength":24,"target":34963},{"buffer":0,"byteOffset":4200,"byteLength":96,"target":34962,"byteStride":12},{"buffer":0,"byteOffset":4296,"byteLength":96,"target":34962,"byteStride":12},{"buffer":0,"byteOffset":4392,"byteLength":64,"target":34962,"byteStride":8},{"buffer":0,"byteOffset":4456,"byteLength":24,"target":34963}],"buffers":[{"byteLength":4480,"uri":"data:application/octet-stream;base64,"}],"accessors":[{"bufferView":0,"componentType":5126,"count":24,"max":[1.493749976158142,0.25,0.4937500059604645],"min":[-1.493749976158142,0.1875,-0.4937500059604645],"type":"VEC3"},{"bufferView":1,"componentType":5126,"count":24,"max":[1,1,1],"min":[-1,-1,-1],"type":"VEC3"},{"bufferView":2,"componentType":5126,"count":24,"max":[0.375,0.125],"min":[0,0],"type":"VEC2"},{"bufferView":3,"componentType":5123,"count":36,"max":[23],"min":[0],"type":"SCALAR"},{"bufferView":4,"componentType":5126,"count":24,"max":[1.493749976158142,0.9375,0.4937500059604645],"min":[-1.493749976158142,0.875,-0.4937500059604645],"type":"VEC3"},{"bufferView":5,"componentType":5126,"count":24,"max":[1,1,1],"min":[-1,-1,-1],"type":"VEC3"},{"bufferView":6,"componentType":5126,"count":24,"max":[0.375,0.125],"min":[0,0],"type":"VEC2"},{"bufferView":7,"componentType":5123,"count":36,"max":[23],"min":[0],"type":"SCALAR"},{"bufferView":8,"componentType":5126,"count":24,"max":[1.493749976158142,1.625,0.4937500059604645],"min":[-1.493749976158142,1.5625,-0.4937500059604645],"type":"VEC3"},{"bufferView":9,"componentType":5126,"count":24,"max":[1,1,1],"min":[-1,-1,-1],"type":"VEC3"},{"bufferView":10,"componentType":5126,"count":24,"max":[0.375,0.125],"min":[0,0],"type":"VEC2"},{"bufferView":11,"componentType":5123,"count":36,"max":[23],"min":[0],"type":"SCALAR"},{"bufferView":12,"componentType":5126,"count":24,"max":[1.493749976158142,2.3125,0.4937500059604645],"min":[-1.493749976158142,2.25,-0.4937500059604645],"type":"VEC3"},{"bufferView":13,"componentType":5126,"count":24,"max":[1,1,1],"min":[-1,-1,-1],"type":"VEC3"},{"bufferView":14,"componentType":5126,"count":24,"max":[0.375,0.125],"min":[0,0],"type":"VEC2"},{"bufferView":15,"componentType":5123,"count":36,"max":[23],"min":[0],"type":"SCALAR"},{"bufferView":16,"componentType":5126,"count":8,"max":[-1.375,-0.6875,1.1875],"min":[-1.5,-0.8125,-1.125],"type":"VEC3"},{"bufferView":17,"componentType":5126,"count":8,"max":[0,1,0],"min":[-1,0,0],"type":"VEC3"},{"bufferView":18,"componentType":5126,"count":8,"max":[0.015625,0.484375],"min":[0,0.1953125],"type":"VEC2"},{"bufferView":19,"componentType":5123,"count":12,"max":[7],"min":[0],"type":"SCALAR"},{"bufferView":20,"componentType":5126,"count":8,"max":[0.125,0.125,1.1875],"min":[0,0,-1.125],"type":"VEC3"},{"bufferView":21,"componentType":5126,"count":8,"max":[0,1,0],"min":[-1,0,0],"type":"VEC3"},{"bufferView":22,"componentType":5126,"count":8,"max":[0.015625,0.484375],"min":[0,0.1953125],"type":"VEC2"},{"bufferView":23,"componentType":5123,"count":12,"max":[7],"min":[0],"type":"SCALAR"},{"bufferView":24,"componentType":5126,"count":8,"max":[0,0,1.1875],"min":[-0.125,-0.125,-1.125],"type":"VEC3"},{"bufferView":25,"componentType":5126,"count":8,"max":[0,1,0],"min":[-1,0,0],"type":"VEC3"},{"bufferView":26,"componentType":5126,"count":8,"max":[0.015625,0.484375],"min":[0,0.1953125],"type":"VEC2"},{"bufferView":27,"componentType":5123,"count":12,"max":[7],"min":[0],"type":"SCALAR"},{"bufferView":28,"componentType":5126,"count":8,"max":[0.125,0.125,1.1875],"min":[-6.938893903907228e-18,2.7755575615628914e-17,-1.125],"type":"VEC3"},{"bufferView":29,"componentType":5126,"count":8,"max":[0,1,0],"min":[-1,0,-4.800964547063898e-17],"type":"VEC3"},{"bufferView":30,"componentType":5126,"count":8,"max":[0.015625,0.484375],"min":[0,0.1953125],"type":"VEC2"},{"bufferView":31,"componentType":5123,"count":12,"max":[7],"min":[0],"type":"SCALAR"}],"materials":[{"pbrMetallicRoughness":{"metallicFactor":0,"roughnessFactor":1,"baseColorTexture":{"index":0}},"alphaMode":"MASK","alphaCutoff":0.05,"doubleSided":true}],"textures":[{"sampler":0,"source":0}],"samplers":[{"magFilter":9728,"minFilter":9728,"wrapS":33071,"wrapT":33071}],"images":[{"mimeType":"image/png","uri":"data:image/png;base64,"}],"meshes":[{"primitives":[{"mode":4,"attributes":{"POSITION":0,"NORMAL":1,"TEXCOORD_0":2},"indices":3,"material":0}]},{"primitives":[{"mode":4,"attributes":{"POSITION":4,"NORMAL":5,"TEXCOORD_0":6},"indices":7,"material":0}]},{"primitives":[{"mode":4,"attributes":{"POSITION":8,"NORMAL":9,"TEXCOORD_0":10},"indices":11,"material":0}]},{"primitives":[{"mode":4,"attributes":{"POSITION":12,"NORMAL":13,"TEXCOORD_0":14},"indices":15,"material":0}]},{"primitives":[{"mode":4,"attributes":{"POSITION":16,"NORMAL":17,"TEXCOORD_0":18},"indices":19,"material":0}]},{"primitives":[{"mode":4,"attributes":{"POSITION":20,"NORMAL":21,"TEXCOORD_0":22},"indices":23,"material":0}]},{"primitives":[{"mode":4,"attributes":{"POSITION":24,"NORMAL":25,"TEXCOORD_0":26},"indices":27,"material":0}]},{"primitives":[{"mode":4,"attributes":{"POSITION":28,"NORMAL":29,"TEXCOORD_0":30},"indices":31,"material":0}]}]}